<?xml version="1.0" standalone="no"?>
<!DOCTYPE svg PUBLIC "-//W3C//DTD SVG 20010904//EN"
 "http://www.w3.org/TR/2001/REC-SVG-20010904/DTD/svg10.dtd">
<svg version="1.0" xmlns="http://www.w3.org/2000/svg"
 width="700.000000pt" height="700.000000pt" viewBox="0 0 700.000000 700.000000"
 preserveAspectRatio="xMidYMid meet">
<metadata>
Created by potrace 1.11, written by Peter Selinger 2001-2013
</metadata>
<g transform="translate(0.000000,700.000000) scale(0.100000,-0.100000)"
fill="#000000" stroke="none">
<path d="M3384 6566 c-65 -16 -73 -20 -724 -394 -245 -140 -463 -265 -485
-278 -22 -12 -94 -54 -160 -92 -66 -39 -181 -105 -255 -148 -262 -151 -676
-398 -772 -460 -166 -108 -220 -208 -228 -419 -7 -165 -5 -2430 1 -2570 5
-107 11 -141 32 -191 52 -128 94 -165 407 -351 222 -132 402 -238 450 -265 25
-14 113 -65 195 -113 235 -137 679 -392 1095 -629 151 -86 282 -161 290 -166
79 -51 145 -73 228 -77 142 -8 183 6 443 157 67 38 123 70 125 70 4 0 338 193
364 210 8 6 22 13 30 17 8 4 48 26 88 50 40 24 77 43 81 43 5 0 11 3 13 8 2 4
17 14 33 23 39 21 499 288 894 520 172 101 333 195 356 209 217 127 249 157
322 310 l22 45 0 1420 -1 1420 -44 86 c-24 47 -59 100 -76 118 -25 26 -401
257 -598 369 -19 10 -138 80 -265 154 -319 187 -1194 693 -1390 803 -131 74
-194 104 -235 115 -63 17 -176 20 -236 6z m445 -1604 c35 -92 69 -180 76 -197
7 -16 32 -82 55 -145 23 -63 48 -128 55 -145 7 -16 41 -104 75 -195 59 -156
130 -343 207 -545 18 -49 38 -99 42 -110 5 -11 25 -63 45 -115 65 -172 286
-752 363 -950 98 -253 125 -331 121 -336 -9 -8 -480 -6 -488 2 -10 11 -115
290 -237 629 l-29 80 -619 3 -620 2 -120 -332 c-66 -182 -124 -344 -128 -360
l-8 -28 -127 -1 c-290 -2 -354 -1 -363 8 -5 5 41 138 112 323 66 173 152 398
190 500 38 102 76 199 84 217 8 17 15 34 15 37 0 7 102 279 124 331 7 17 30
75 50 130 21 55 41 109 46 120 28 71 70 180 150 390 50 132 106 281 126 330
19 50 70 182 113 295 55 142 85 208 99 215 11 6 122 11 274 12 l254 2 63 -167z"/>
<path d="M3472 4579 c-11 -24 -54 -141 -96 -259 -42 -118 -79 -222 -83 -230
-3 -8 -7 -19 -9 -25 -1 -5 -42 -118 -90 -250 -175 -486 -175 -485 -151 -486
12 -1 225 -2 473 -4 l452 -2 -10 33 c-8 29 -42 127 -143 414 -30 85 -63 175
-75 205 -4 11 -22 58 -38 105 -75 209 -195 526 -202 534 -5 5 -18 -11 -28 -35z"/>
</g>
</svg>
